<?xml version="1.0" encoding="UTF-8"?>
<svg version="1.1" xmlns="http://www.w3.org/2000/svg" width="512" height="512">
<path d="M0 0 C7.92083666 6.72310503 15.24195696 14.0816612 22.59057617 21.41357422 C23.82187934 22.63859625 25.05336558 23.86343429 26.28501892 25.08810425 C30.29118494 29.07344279 34.2922107 33.06392135 38.29296875 37.0546875 C39.67899309 38.43665782 41.06504892 39.81859655 42.45113564 41.2005043 C48.9596875 47.69006007 55.46586291 54.18198678 61.9691059 60.6768626 C69.44740829 68.14538024 76.93393228 75.60552869 84.4274866 83.0587424 C90.24203245 88.84306769 96.0488232 94.63510584 101.84993154 100.43290722 C105.30536704 103.88600138 108.76397407 107.33576529 112.23085594 110.77737045 C115.49096548 114.01408645 118.74128477 117.2603306 121.98459816 120.51387405 C123.16984505 121.69961348 124.35846297 122.88199532 125.55084229 124.06056213 C133.99952413 132.41688744 141.34502424 140.9951314 145.8125 152.1875 C146.19019531 153.10917969 146.56789063 154.03085938 146.95703125 154.98046875 C152.9943689 172.45935265 151.6056111 192.24892888 144 208.9375 C135.85735926 224.16204597 122.32485515 235.95328582 110.21801758 248.0090332 C108.33421408 249.89227159 106.45081293 251.77590455 104.56790161 253.66003418 C100.53671022 257.69226688 96.50191605 261.72086407 92.46454811 265.746912 C86.62742532 271.56767939 80.79592913 277.39405779 74.96572753 283.2217566 C65.50312139 292.68000127 56.03607128 302.13378458 46.56616211 311.5847168 C37.37499686 320.75748297 28.18596517 329.93237794 18.99975586 339.11010742 C18.43212966 339.67720817 17.86450347 340.24430892 17.27967647 340.82859454 C14.43166132 343.67399935 11.58368764 346.51944567 8.73573458 349.36491263 C-14.83641752 372.91638049 -38.41580835 396.46058832 -62 420 C-61.07970253 420.00238835 -60.15940506 420.00477671 -59.21121979 420.00723743 C-36.80981841 420.06639467 -14.40852456 420.14194949 7.9927597 420.23571491 C18.8258924 420.28066465 29.65899229 420.32008126 40.4921875 420.34643555 C49.93530715 420.36942222 59.37832289 420.40282785 68.82136011 420.44870156 C73.82055353 420.47262464 78.81964409 420.49135945 83.81889343 420.49761391 C88.52700874 420.50366884 93.23486089 420.52368365 97.94287872 420.55427551 C99.66816123 420.56304915 101.39347814 420.56677972 103.11878204 420.56500816 C105.48097914 420.56334888 107.84238021 420.58010946 110.20446777 420.60127258 C110.88153574 420.59642501 111.5586037 420.59157743 112.25618887 420.58658296 C117.98449061 420.67083647 123.50695634 421.9689876 128.0234375 425.6484375 C132.38095328 431.21497499 134.49613717 435.46701326 134.31640625 442.65625 C133.60805975 447.90326112 131.29645254 451.76837009 127.5 455.375 C126.675 455.91125 125.85 456.4475 125 457 C124.44995627 457.35820945 123.89991254 457.71641891 123.33320081 458.08548319 C119.97977004 459.39988733 116.71749647 459.27689091 113.168787 459.25726891 C112.3707452 459.26077498 111.57270339 459.26428105 110.75047851 459.26789337 C108.05970891 459.27724327 105.36915405 459.27227484 102.67837524 459.26742554 C100.7364164 459.27115999 98.79445907 459.27576068 96.85250413 459.28115618 C91.50296681 459.29342691 86.15349183 459.29312094 80.80394363 459.29076743 C75.03969095 459.29036029 69.27545852 459.3013885 63.51121521 459.31088257 C52.21328549 459.32751561 40.91537664 459.33299315 29.61743571 459.33410732 C20.43708642 459.33505666 11.25674404 459.33916122 2.07639694 459.34550858 C-19.69906034 459.36025858 -41.47451225 459.37255764 -63.2499752 459.37151146 C-64.29489292 459.37146472 -64.29489292 459.37146472 -65.36092008 459.37141704 C-68.89176371 459.37125082 -72.42260733 459.37105274 -75.95345096 459.37084763 C-76.654709 459.37080774 -77.35596704 459.37076785 -78.07847532 459.37072675 C-79.49659021 459.37064587 -80.91470509 459.37056228 -82.33281997 459.37047596 C-104.39996622 459.36925026 -126.46705102 459.38426627 -148.53417969 459.41162109 C-173.3173361 459.44232998 -198.10045184 459.45952898 -222.88362849 459.45769465 C-236.00931438 459.45702976 -249.13493099 459.46256546 -262.26060104 459.48405075 C-273.43477021 459.50222399 -284.60883867 459.50664165 -295.78301619 459.4930319 C-301.48700836 459.48648288 -307.19080711 459.48645469 -312.89478111 459.5037384 C-318.11324704 459.51938872 -323.3313649 459.51668814 -328.54982193 459.49917014 C-330.44078063 459.49608245 -332.3317648 459.49979862 -334.22269349 459.51089029 C-336.78792225 459.52494432 -339.35191871 459.51447856 -341.91710472 459.49777794 C-343.02521657 459.51268248 -343.02521657 459.51268248 -344.15571451 459.52788812 C-350.00730363 459.44702755 -353.549448 457.43308964 -357.64453125 453.3671875 C-362.64298574 446.98120216 -362.8190707 442.04948788 -362 434 C-360.3418279 429.24855619 -357.71850934 426.16432033 -353.4375 423.5625 C-348.61489645 421.37040748 -344.9725907 420.86773255 -339.67089844 420.79467773 C-337.74935944 420.7647599 -337.74935944 420.7647599 -335.78900146 420.73423767 C-334.39579386 420.71725591 -333.00258501 420.70037701 -331.609375 420.68359375 C-330.18019017 420.66301206 -328.75101127 420.64201527 -327.32183838 420.62062073 C-323.5670655 420.56552551 -319.81223882 420.51606112 -316.05737305 420.46777344 C-312.22309605 420.41746655 -308.3888968 420.36182852 -304.5546875 420.30664062 C-297.03652425 420.19921264 -289.51829618 420.09773384 -282 420 C-282.81130875 419.1975737 -283.62261749 418.3951474 -284.45851135 417.56840515 C-292.13405766 409.97423833 -299.79879697 402.369309 -307.45330906 394.75393963 C-311.38812835 390.83992103 -315.32654917 386.92968019 -319.27368164 383.02807617 C-323.08864993 379.25683395 -326.89352569 375.47566785 -330.69184685 371.68766212 C-332.13666749 370.25018498 -333.58498167 368.81620974 -335.03695869 367.38596153 C-344.4574786 358.10074759 -352.81983802 349.32061783 -357.8125 336.8125 C-358.19019531 335.89082031 -358.56789063 334.96914063 -358.95703125 334.01953125 C-364.71220932 317.35753631 -364.04336511 298.14728917 -357 282 C-356.36578125 280.51886719 -356.36578125 280.51886719 -355.71875 279.0078125 C-349.8196863 266.90101317 -338.44432004 257.29442412 -329.0324707 247.88529968 C-327.97466613 246.82418399 -326.91707037 245.76286012 -325.85966206 244.70134956 C-322.98915872 241.82096224 -320.11563378 238.94360695 -317.24152231 236.0668205 C-314.1286324 232.94998724 -311.01856182 229.83034259 -307.90805054 226.71113586 C-300.42015034 219.20359864 -292.9275167 211.70079431 -285.43425322 204.19861075 C-282.6078984 201.36874085 -279.78185917 198.53855591 -276.95583647 195.70835435 C-264.48337131 183.21744651 -252.00956169 170.7278831 -239.53172302 158.24234295 C-236.48761048 155.19632087 -233.44350337 152.15029335 -230.39941406 149.10424805 C-229.64292261 148.34727286 -228.88643116 147.59029767 -228.10701573 146.81038383 C-215.83480439 134.52986031 -203.57114502 122.24083336 -191.31100571 109.94825902 C-178.70151194 97.30567965 -166.08448639 84.67065677 -153.46003628 72.04301196 C-146.38066934 64.9614829 -139.30461034 57.87671697 -132.23696899 50.78348351 C-126.22362621 44.74841449 -120.20347506 38.72024226 -114.17440343 32.70088472 C-111.10161389 29.63263226 -108.03210663 26.56127991 -104.97132492 23.48104477 C-102.16468424 20.65672058 -99.34881339 17.84194136 -96.52558458 15.03420172 C-95.51079356 14.02177868 -94.49931194 13.00602413 -93.4916836 11.98647209 C-85.64143561 4.0491788 -77.31763929 -2.60271807 -66.875 -6.8125 C-65.96492188 -7.19019531 -65.05484375 -7.56789063 -64.1171875 -7.95703125 C-43.19839534 -14.95617599 -18.27672412 -12.59641366 0 0 Z M-84.703125 57.60546875 C-86.27759139 59.18180474 -87.85228206 60.75791675 -89.42718506 62.33381653 C-93.53264611 66.44306017 -97.63509287 70.55529987 -101.73687744 74.66821289 C-105.93862187 78.88026397 -110.1432678 83.08941654 -114.34765625 87.29882812 C-122.56791513 95.52974905 -130.78498632 103.76384424 -139 112 C-137.72512174 114.79187652 -136.40859485 116.84087419 -134.23950768 119.00658798 C-133.3922945 119.8597743 -133.3922945 119.8597743 -132.5279659 120.73019671 C-131.90734891 121.34498802 -131.28673192 121.95977933 -130.64730835 122.59320068 C-129.98814757 123.25407031 -129.32898679 123.91493994 -128.64985144 124.59583592 C-126.43584659 126.81313984 -124.21476011 129.02321134 -121.99365234 131.23339844 C-120.40674112 132.81974564 -118.82026992 134.40653313 -117.23420715 135.99372864 C-112.92281488 140.30569577 -108.6052749 144.61145979 -104.28662825 148.91615963 C-99.77603065 153.41427212 -95.2710795 157.91803227 -90.76553345 162.42120361 C-83.20106951 169.98015352 -75.63312328 177.5355992 -68.0625 185.08837891 C-60.26490934 192.86761013 -52.46942307 200.64894021 -44.67675781 208.43310547 C-44.19637697 208.91296086 -43.71599613 209.39281626 -43.22105829 209.88721272 C-40.8111297 212.29453123 -38.40124242 214.7018911 -35.99137568 217.10927153 C-16.00065204 237.07926344 3.99738128 257.04192316 24 277 C27.01234159 275.64780829 29.11623138 274.13754055 31.45324707 271.81417847 C32.11768326 271.15827225 32.78211945 270.50236603 33.46669006 269.82658386 C34.18473312 269.10763443 34.90277618 268.388685 35.64257812 267.64794922 C36.40726913 266.88997543 37.17196014 266.13200165 37.95982361 265.35105896 C40.48898024 262.84091652 43.0105093 260.32327952 45.53125 257.8046875 C47.28700155 256.0553624 49.04290373 254.30618847 50.7989502 252.55715942 C54.48103903 248.88705259 58.15896234 245.21282724 61.83447266 241.53613281 C66.53804609 236.83122772 71.25631671 232.14136749 75.97776031 227.45438957 C79.61006515 223.84435494 83.23320993 220.22523299 86.85386658 216.60351944 C88.58893813 214.87080442 90.32724561 213.14132334 92.06886292 211.41518784 C94.50801955 208.99568809 96.93410401 206.56376761 99.35742188 204.12841797 C100.07546494 203.42161392 100.793508 202.71480988 101.53330994 201.98658752 C108.14358147 195.29285664 112.09596706 188.49913871 112.3125 178.9375 C112.08035939 161.48826405 98.61758617 151.46898451 87.12133789 139.9284668 C85.9538156 138.75302121 84.78646734 137.57740274 83.61927795 136.40162659 C79.82407617 132.58049659 76.02368485 128.76455135 72.22265625 124.94921875 C70.90631621 123.62750997 69.58998056 122.30579681 68.27364922 120.98407936 C62.79820656 115.48706513 57.32134752 109.99146859 51.84076786 104.49957561 C44.02000345 96.6625502 36.20788014 88.81713072 28.4074536 80.9598605 C22.90002637 75.41368316 17.3830005 69.87717047 11.85880655 64.34769374 C8.56819288 61.05343829 5.28184112 57.75518624 2.00572395 54.44650841 C-1.07372345 51.33688523 -4.16495507 48.23947105 -7.2653904 45.15077782 C-8.39599392 44.02039411 -9.52238336 42.88577596 -10.64402008 41.74649429 C-18.89595121 33.37193359 -27.27339914 25.99192362 -39.5625 25.6875 C-58.8546124 26.01173718 -72.03930635 44.89691272 -84.703125 57.60546875 Z M-172.15615726 144.87002206 C-172.7298811 145.44547887 -173.30360494 146.02093567 -173.89471436 146.61383057 C-174.50472266 147.21789663 -175.11473097 147.8219627 -175.74322438 148.44433379 C-177.80077786 150.48444455 -179.85102859 152.53174166 -181.90136719 154.57910156 C-183.36935308 156.03783536 -184.83773607 157.49616962 -186.30648804 158.95413208 C-190.30766234 162.92899924 -194.30208826 166.91058105 -198.29456234 170.89418507 C-200.78994551 173.38371177 -203.28650033 175.87205758 -205.78342438 178.36003876 C-213.59739767 186.14663668 -221.40733103 193.93725342 -229.21148372 201.73369431 C-238.21510347 210.72836844 -247.23160421 219.7098566 -256.25972629 228.67993569 C-263.2377487 235.61465265 -270.20412862 242.56092657 -277.16186643 249.51599479 C-281.31653075 253.6685667 -285.47587311 257.81617439 -289.64736176 261.95185089 C-293.57747895 265.84888599 -297.49287151 269.76014643 -301.39772415 273.6824913 C-302.82836008 275.11466199 -304.26407711 276.54177905 -305.70537186 277.9632225 C-314.36195971 286.50759643 -322.3999334 294.44910645 -324.7265625 306.8828125 C-324.39239113 317.55059089 -322.78841578 324.32120147 -315.28076172 332.11035156 C-310.5322998 337.14692512 -306.21118211 342.43467696 -301.95361328 347.88964844 C-273.30970074 384.32045083 -239.86209092 425.10503422 -191.43373203 432.18628883 C-159.33383891 435.95299736 -129.67262958 431.15468732 -103.95899427 410.99573529 C-66.15155355 380.66820361 -33.86820497 343.16944941 -3 306 C-4.27417343 303.21084392 -5.5901554 301.15960495 -7.7549057 298.99341202 C-8.60026878 298.1402257 -8.60026878 298.1402257 -9.4627099 297.26980329 C-10.39158903 296.34761632 -10.39158903 296.34761632 -11.3392334 295.40679932 C-11.99698305 294.74592969 -12.65473269 294.08506006 -13.33241415 293.40416408 C-15.54173514 291.18685393 -17.75815058 288.97677496 -19.97460938 286.76660156 C-21.5582618 285.18023974 -23.14148829 283.59345261 -24.72431946 282.00627136 C-29.02736521 277.69409474 -33.33672931 273.38828429 -37.64750862 269.08384037 C-42.15125585 264.58514772 -46.65013153 260.08158768 -51.14978027 255.57879639 C-59.18972744 247.53497543 -67.23471094 239.49621516 -75.28167719 231.45941815 C-82.58335502 224.16668195 -89.87976451 216.86870922 -97.17236328 209.56689453 C-105.63731366 201.09125175 -114.10560018 192.61896444 -122.5788579 184.15162444 C-127.06569283 179.66791465 -131.55114866 175.18284769 -136.03312683 170.69428253 C-140.2441659 166.47748735 -144.46002665 162.26557422 -148.679739 158.05745888 C-150.2319289 156.50792454 -151.78239893 154.95666529 -153.33106422 153.40360832 C-155.43639583 151.2928553 -157.54771911 149.18829054 -159.6607666 147.08526611 C-160.28001935 146.46155192 -160.89927211 145.83783772 -161.5372901 145.19522309 C-166.40094058 140.37658228 -167.23371984 140.01991866 -172.15615726 144.87002206 Z " fill="#000000" transform="translate(362,33)"/>
</svg>
