<svg xmlns="http://www.w3.org/2000/svg" xmlns:xlink="http://www.w3.org/1999/xlink" version="1.1" width="256" height="256" viewBox="0 0 256 256" xml:space="preserve">
<g style="stroke: none; stroke-width: 0; stroke-dasharray: none; stroke-linecap: butt; stroke-linejoin: miter; stroke-miterlimit: 10; fill: none; fill-rule: nonzero; opacity: 1;" transform="translate(1.4065934065934016 1.4065934065934016) scale(2.81 2.81)">
	<path d="M 83.904 54.45 c -3.231 -1.956 -7.248 -3.048 -10.758 -2.439 c -1.506 0.261 -3.101 0.835 -3.894 2.142 c -0.595 0.982 -0.626 2.199 -0.55 3.344 c 0.343 5.188 2.534 12.026 8.353 13.264 c 2.348 0.499 4.793 -0.164 6.993 -1.124 C 93.574 65.478 90.256 58.295 83.904 54.45 z" style="stroke: none; stroke-width: 1; stroke-dasharray: none; stroke-linecap: butt; stroke-linejoin: miter; stroke-miterlimit: 10; fill: rgb(204,66,29); fill-rule: nonzero; opacity: 1;" transform=" matrix(1 0 0 1 0 0) " stroke-linecap="round"/>
	<path d="M 52.835 17.708 c -0.349 -0.193 -0.682 -0.408 -0.996 -0.645 c -1.934 -1.46 -2.87 -4.525 -1.271 -6.346 c 0.595 -0.678 1.439 -1.083 2.284 -1.4 c 4.465 -1.675 15.709 -2.16 14.353 5.481 c -0.253 1.427 -1.552 2.427 -2.86 3.053 C 61.037 19.436 56.203 19.575 52.835 17.708 z" style="stroke: none; stroke-width: 1; stroke-dasharray: none; stroke-linecap: butt; stroke-linejoin: miter; stroke-miterlimit: 10; fill: rgb(204,66,29); fill-rule: nonzero; opacity: 1;" transform=" matrix(1 0 0 1 0 0) " stroke-linecap="round"/>
	<path d="M 35.008 10.237 c -0.883 -0.439 -1.85 -0.705 -2.922 -0.738 c -5.658 -0.177 -9.282 7.44 -10.95 11.904 c -2.112 5.65 -3.751 12.03 -8.643 15.557 c -3.876 2.795 -9.541 3.582 -11.726 7.831 c -1.503 2.924 -0.667 6.652 1.374 9.23 s 5.081 4.172 8.173 5.29 c 9.515 3.438 20.903 3.386 28.082 10.514 c 2.424 2.407 4.127 5.449 6.463 7.942 s 5.687 4.482 9.035 3.806 c 3.896 -0.787 6.307 -4.949 6.631 -8.911 s -0.9 -7.861 -1.667 -11.761 s -1.015 -8.199 1.041 -11.601 c 4.262 -7.052 15.088 -6.013 21.552 -11.123 c 0.955 -0.755 1.845 -1.715 2.078 -2.91 c 0.551 -2.83 -2.663 -4.895 -5.464 -5.578 c -5.544 -1.35 -11.347 -0.796 -17.048 -1.034 c -5.7 -0.238 -11.765 -1.483 -15.74 -5.576 C 42.006 19.712 39.671 12.556 35.008 10.237 z" style="stroke: none; stroke-width: 1; stroke-dasharray: none; stroke-linecap: butt; stroke-linejoin: miter; stroke-miterlimit: 10; fill: rgb(204,66,29); fill-rule: nonzero; opacity: 1;" transform=" matrix(1 0 0 1 0 0) " stroke-linecap="round"/>
</g>
</svg>