<?xml version="1.0" encoding="UTF-8"?>
<svg version="1.1" xmlns="http://www.w3.org/2000/svg" width="512" height="512">
<path d="M0 0 C0.9834683 -0.00297112 1.9669366 -0.00594224 2.98020697 -0.0090034 C6.27323094 -0.01766972 9.56621846 -0.01919692 12.85925293 -0.02069092 C15.22162961 -0.02532064 17.58400555 -0.03034551 19.94638062 -0.03573608 C27.03336833 -0.05021674 34.12034824 -0.05624333 41.20734811 -0.0611316 C44.55076447 -0.06371323 47.89417938 -0.06750308 51.2375946 -0.07125092 C62.36222431 -0.0834416 73.4868521 -0.09374033 84.61148834 -0.09712601 C85.67863233 -0.09745536 85.67863233 -0.09745536 86.76733479 -0.09779136 C87.83694336 -0.09811878 87.83694336 -0.09811878 88.92816019 -0.09845281 C90.37296454 -0.09889626 91.81776889 -0.09934283 93.26257324 -0.09979248 C93.97923666 -0.10001391 94.69590008 -0.10023534 95.43428057 -0.10046348 C107.03188531 -0.10440666 118.62942703 -0.12184687 130.22700745 -0.145152 C142.15341837 -0.16892301 154.07979776 -0.18133052 166.00623274 -0.18249393 C172.6945878 -0.18340762 179.38284836 -0.18940508 186.07118225 -0.20731354 C192.36834463 -0.22384641 198.66535182 -0.22592436 204.96252823 -0.21717453 C207.26583905 -0.21640689 209.56915839 -0.22071064 211.87244797 -0.23063278 C223.69363038 -0.27854381 234.74744344 -0.18833307 246.1854248 3.14044189 C246.95198647 3.36300533 247.71854813 3.58556877 248.50833893 3.81487656 C263.09793116 8.43460763 275.8195533 15.90234678 287.1854248 26.14044189 C287.96530762 26.83782471 288.74519043 27.53520752 289.54870605 28.25372314 C305.30963052 43.14357752 318.29531858 67.24820806 319.27999556 89.25392401 C319.32307863 91.81468084 319.33311326 94.37370666 319.33259583 96.93482971 C319.33627251 97.91618131 319.3399492 98.89753291 319.3437373 99.90862244 C319.35474376 103.19464116 319.35861289 106.48062823 319.36242676 109.7666626 C319.36869388 112.12417195 319.3753409 114.48168032 319.38233948 116.83918762 C319.40154352 123.91283918 319.41216581 130.98648716 319.42106727 138.06015828 C319.42545881 141.39870514 319.43082348 144.73725051 319.43605614 148.07579613 C319.4530663 159.18755037 319.4675567 170.29930366 319.47480488 181.41106892 C319.4767145 184.29164443 319.47863487 187.17221993 319.48059082 190.05279541 C319.48107456 190.7686719 319.4815583 191.48454839 319.4820567 192.2221181 C319.49034295 203.79831713 319.51565696 215.37441236 319.5481715 226.95056615 C319.5813469 238.86004093 319.59926319 250.76946316 319.60244912 262.67898434 C319.60460489 269.35571472 319.61366625 276.03231388 319.63891029 282.70900917 C319.66230698 288.99882632 319.66637769 295.28837277 319.65614891 301.57822227 C319.6556562 303.87544026 319.66189766 306.17267209 319.67570496 308.46984863 C319.8382011 337.12972168 312.7424753 362.42908635 293.1854248 384.14044189 C292.48804199 384.92032471 291.79065918 385.70020752 291.07214355 386.50372314 C276.18228918 402.26464761 252.07765864 415.25033567 230.07194269 416.23501265 C227.51118586 416.27809572 224.95216004 416.28813035 222.39103699 416.28761292 C221.40968539 416.2912896 220.42833378 416.29496629 219.41724426 416.29875439 C216.13122553 416.30976085 212.84523847 416.31362998 209.5592041 416.31744385 C207.20169475 416.32371097 204.84418637 416.33035799 202.48667908 416.33735657 C195.41302752 416.35656061 188.33937954 416.3671829 181.26570842 416.37608436 C177.92716156 416.3804759 174.58861619 416.38584057 171.25007057 416.39107323 C160.13831633 416.40808339 149.02656304 416.42257379 137.91479778 416.42982197 C135.03422227 416.43173159 132.15364677 416.43365196 129.27307129 416.43560791 C128.5571948 416.43609165 127.84131831 416.43657539 127.1037486 416.43707379 C115.52754957 416.44536004 103.95145434 416.47067405 92.37530055 416.50318859 C80.46582577 416.53636399 68.55640354 416.55428028 56.64688236 416.55746621 C49.97015198 416.55962198 43.29355282 416.56868334 36.61685753 416.59392738 C30.32704038 416.61732407 24.03749393 416.62139478 17.74764442 416.611166 C15.45042644 416.61067329 13.15319461 416.61691475 10.85601807 416.63072205 C-18.67468789 416.79815565 -45.5248261 409.1175759 -66.95129395 388.03497314 C-67.90717651 387.07157134 -68.86172418 386.10684216 -69.8145752 385.14044189 C-70.93799316 384.03249268 -70.93799316 384.03249268 -72.08410645 382.90216064 C-87.9162492 366.32056734 -96.97650537 342.00701631 -96.95501709 319.3258667 C-96.95798821 318.3423984 -96.96095933 317.3589301 -96.96402049 316.34565973 C-96.97268681 313.05263576 -96.97421401 309.75964824 -96.97570801 306.46661377 C-96.98033773 304.10423709 -96.9853626 301.74186115 -96.99075317 299.37948608 C-97.00523383 292.29249837 -97.01126042 285.20551846 -97.01614869 278.11851859 C-97.01873032 274.77510223 -97.02252017 271.43168732 -97.02626801 268.08827209 C-97.03845869 256.96364239 -97.04875742 245.83901459 -97.0521431 234.71437836 C-97.05236266 234.00294903 -97.05258223 233.2915197 -97.05280845 232.55853191 C-97.05302673 231.84545953 -97.053245 231.13238715 -97.0534699 230.39770651 C-97.05391335 228.95290216 -97.05435992 227.50809781 -97.05480957 226.06329346 C-97.055031 225.34663004 -97.05525243 224.62996662 -97.05548057 223.89158612 C-97.05942374 212.29398139 -97.07686396 200.69643967 -97.10016909 189.09885925 C-97.1239401 177.17244833 -97.13634761 165.24606894 -97.13751101 153.31963396 C-97.13842471 146.6312789 -97.14442217 139.94301834 -97.16233063 133.25468445 C-97.1788635 126.95752207 -97.18094145 120.66051487 -97.17219162 114.36333847 C-97.17142398 112.06002765 -97.17572773 109.75670831 -97.18564987 107.45341873 C-97.2335609 95.63223632 -97.14335016 84.57842326 -93.8145752 73.14044189 C-93.59201176 72.37388023 -93.36944832 71.60731857 -93.14014053 70.81752777 C-88.52040946 56.22793554 -81.0526703 43.5063134 -70.8145752 32.14044189 C-70.11719238 31.36055908 -69.41980957 30.58067627 -68.70129395 29.77716064 C-51.2697885 11.3258962 -25.29625184 -0.02396585 0 0 Z M-46.8145752 55.14044189 C-63.83534367 75.31657564 -64.96706641 96.64289714 -64.95983887 121.77984619 C-64.9628349 123.86385661 -64.96623845 125.94786647 -64.97001648 128.03187561 C-64.97881574 133.66848538 -64.98119288 139.30507995 -64.98183227 144.94169593 C-64.98254512 148.47047377 -64.9846839 151.99924779 -64.98732948 155.52802467 C-64.99656966 167.85936349 -65.00066606 180.19069153 -64.99987793 192.52203369 C-64.9992776 203.98325177 -65.00982403 215.44442271 -65.02562159 226.90562886 C-65.0387342 236.77353723 -65.04406026 246.64143026 -65.04342252 256.50934726 C-65.04316861 262.39059885 -65.04596026 268.27180853 -65.05660057 274.15305138 C-65.06634428 279.68940616 -65.06631808 285.22567948 -65.05908394 290.76203728 C-65.05804583 292.78231171 -65.0603544 294.80259138 -65.0664444 296.8228569 C-65.13939741 322.72210484 -62.28416485 344.63926086 -44.1270752 364.39044189 C-24.38147836 382.88483259 -0.29069308 384.45602547 25.39245605 384.39923096 C27.47720461 384.40194735 29.56195219 384.40551189 31.646698 384.40985107 C37.26237253 384.41890031 42.87797285 384.41546189 48.49364853 384.4090929 C54.39847753 384.40399397 60.3033006 384.4087351 66.20812988 384.41186523 C76.12016936 384.4154936 86.03217894 384.41073551 95.94421387 384.40118408 C107.36861855 384.39030174 118.79295182 384.39382811 130.21735477 384.40483689 C140.06413664 384.41394204 149.91089713 384.41517931 159.75768185 384.40995955 C165.62208665 384.40685756 171.486458 384.40638146 177.3508606 384.41303253 C182.86676974 384.41885252 188.3825877 384.4147248 193.89848709 384.40324402 C195.91070022 384.40062214 197.92292116 384.40131964 199.93513107 384.40576935 C225.80826176 384.45766508 247.7052618 381.59070986 267.4354248 363.45294189 C285.9298155 343.70734506 287.50100838 319.61655978 287.44421387 293.93341064 C287.44693026 291.84866209 287.4504948 289.76391451 287.45483398 287.6791687 C287.46388322 282.06349417 287.4604448 276.44789385 287.45407581 270.83221817 C287.44897688 264.92738917 287.45371801 259.0225661 287.45684814 253.11773682 C287.46047651 243.20569734 287.45571842 233.29368776 287.44616699 223.38165283 C287.43528465 211.95724815 287.43881102 200.53291488 287.4498198 189.10851192 C287.45892495 179.26173006 287.46016222 169.41496957 287.45494246 159.56818485 C287.45184047 153.70378005 287.45136437 147.8394087 287.45801544 141.9750061 C287.46383543 136.45909696 287.45970771 130.943279 287.44822693 125.42737961 C287.44560505 123.41516648 287.44630255 121.40294554 287.45075226 119.39073563 C287.50207712 93.80221646 284.93287092 72.03312548 266.62683105 52.48809814 C250.61471894 37.09085114 231.52453778 31.96489439 209.88362122 32.00672913 C209.00361314 32.00446357 208.12360507 32.00219801 207.21693009 31.9998638 C204.29796733 31.99358501 201.37905173 31.9943492 198.46008301 31.99517822 C196.3548934 31.99218289 194.24970434 31.9887795 192.14451599 31.98500061 C186.44593269 31.97619406 180.74736441 31.97382389 175.04877496 31.97318482 C171.48232064 31.97247237 167.91587011 31.97033433 164.34941673 31.96768761 C151.88955825 31.95844491 139.42971043 31.95435133 126.96984863 31.95513916 C115.38423159 31.95573951 103.79866116 31.94519332 92.21305591 31.9293955 C82.24242412 31.91628783 72.27180752 31.91095662 62.30116719 31.91159457 C56.35677555 31.91184863 50.41242537 31.90904854 44.46804237 31.89841652 C38.87260836 31.88868123 33.27725499 31.88869335 27.68181801 31.89593315 C25.6385486 31.8969723 23.59527402 31.89465632 21.5520134 31.88857269 C-4.9312805 31.8148838 -27.49997737 35.05454565 -46.8145752 55.14044189 Z " fill="#000000" transform="translate(144.8145751953125,47.85955810546875)"/>
</svg>
