<?xml version="1.0" encoding="UTF-8"?>
<svg version="1.1" xmlns="http://www.w3.org/2000/svg" width="512" height="512">
<path d="M0 0 C0.80934601 -0.00320648 1.61869202 -0.00641296 2.45256367 -0.0097166 C5.16374579 -0.01801594 7.87470696 -0.01209253 10.58589268 -0.00622082 C12.54963898 -0.00924152 14.5133841 -0.0131306 16.47712713 -0.01781338 C21.87303615 -0.02811243 27.26887887 -0.0259067 32.66479337 -0.02163279 C38.48424428 -0.01916905 44.30367908 -0.02817532 50.12312412 -0.03567028 C61.52358616 -0.04842882 72.92402465 -0.05020955 84.32449263 -0.04787002 C93.58913478 -0.04608809 102.85376977 -0.0478338 112.11841106 -0.05209446 C114.09513167 -0.05298724 114.09513167 -0.05298724 116.11178603 -0.05389806 C118.11766681 -0.05480532 120.12354758 -0.05571398 122.12942836 -0.05663041 C140.77816771 -0.06505959 159.42690446 -0.06939585 178.07564545 -0.06522369 C178.77862307 -0.06506732 179.4816007 -0.06491094 180.20588067 -0.06474983 C183.76883865 -0.06394405 187.33179662 -0.06309827 190.89475458 -0.06223653 C191.6023679 -0.06206544 192.30998123 -0.06189435 193.03903738 -0.06171808 C194.47000284 -0.06137142 195.9009683 -0.06102289 197.33193376 -0.06067249 C219.60097434 -0.05531452 241.86997533 -0.06324801 264.13900852 -0.08170605 C289.15915784 -0.1024201 314.17928264 -0.11314996 339.19944102 -0.10913056 C352.44697444 -0.10716719 365.69447333 -0.10972818 378.94200039 -0.1238451 C390.21886785 -0.13574029 401.49567703 -0.13718468 412.77254527 -0.12505493 C418.52740513 -0.11915335 424.2821583 -0.11810219 430.03701115 -0.13005733 C435.30413942 -0.14087227 440.57107134 -0.13786518 445.83819026 -0.12379565 C447.74457094 -0.12113661 449.65096679 -0.12355292 451.55733263 -0.13153151 C454.14794092 -0.14162207 456.73786461 -0.13322892 459.32844543 -0.12025452 C460.06909682 -0.12756386 460.80974821 -0.13487321 461.57284358 -0.14240405 C469.20603665 -0.0631279 475.63527022 2.34969716 481.25058079 7.60603809 C485.98747166 12.89431309 486.27604213 18.47403916 486.07089329 25.32088184 C485.25857906 32.25324529 481.96898304 36.54847406 476.80136204 41.02791309 C471.40046815 44.22166202 465.57786212 44.54518601 459.45428658 44.50895119 C458.64494056 44.51215767 457.83559455 44.51536414 457.0017229 44.51866779 C454.29054079 44.52696713 451.57957962 44.52104372 448.8683939 44.515172 C446.9046476 44.51819271 444.94090248 44.52208178 442.97715944 44.52676457 C437.58125042 44.53706362 432.18540771 44.53485789 426.7894932 44.53058398 C420.97004229 44.52812024 415.15060749 44.5371265 409.33116245 44.54462147 C397.93070042 44.55738001 386.53026192 44.55916074 375.12979395 44.5568212 C365.8651518 44.55503928 356.6005168 44.55678499 347.33587551 44.56104565 C345.3591549 44.56193843 345.3591549 44.56193843 343.34250055 44.56284925 C341.33661977 44.5637565 339.33073899 44.56466517 337.32485822 44.5655816 C318.67611886 44.57401077 300.02738212 44.57834704 281.37864113 44.57417488 C280.6756635 44.5740185 279.97268588 44.57386213 279.2484059 44.57370101 C275.68544793 44.57289523 272.12248996 44.57204946 268.55953199 44.57118771 C267.49811201 44.57093108 267.49811201 44.57093108 266.4152492 44.57066926 C264.98428373 44.57032261 263.55331827 44.56997408 262.12235281 44.56962368 C239.85331223 44.5642657 217.58431125 44.5721992 195.31527805 44.59065723 C170.29512873 44.61137129 145.27500394 44.62210115 120.25484556 44.61808175 C107.00731213 44.61611838 93.75981325 44.61867937 80.51228619 44.63279629 C69.23541872 44.64469147 57.95860954 44.64613586 46.6817413 44.63400612 C40.92688144 44.62810454 35.17212828 44.62705338 29.41727543 44.63900852 C24.15014715 44.64982345 18.88321523 44.64681637 13.61609631 44.63274684 C11.70971563 44.6300878 9.80331978 44.63250411 7.89695395 44.6404827 C5.30634566 44.65057325 2.71642197 44.64218011 0.12584114 44.6292057 C-0.61481025 44.63651505 -1.35546164 44.6438244 -2.11855701 44.65135524 C-9.75175008 44.57207909 -16.18098365 42.15925403 -21.79629421 36.90291309 C-26.53318508 31.6146381 -26.82175556 26.03491203 -26.61660671 19.18806934 C-25.80429249 12.2557059 -22.51469647 7.96047713 -17.34707546 3.48103809 C-11.94618158 0.28728917 -6.12357554 -0.03623483 0 0 Z " fill="#000000" transform="translate(26.27285671234131,233.7455244064331)"/>
</svg>
