<?xml version="1.0" encoding="UTF-8"?>
<svg version="1.1" xmlns="http://www.w3.org/2000/svg" width="512" height="512">
<path d="M0 0 C0.90363281 -0.02835938 1.80726563 -0.05671875 2.73828125 -0.0859375 C10.98784271 1.20339793 16.44047605 7.70300974 22.05096436 13.35751343 C22.97362791 14.27549701 23.89629147 15.1934806 24.84691453 16.13928187 C27.3974266 18.67730592 29.93854073 21.22455845 32.4781549 23.77348089 C35.2225608 26.52468584 37.97559883 29.2672299 40.7275238 32.01091003 C46.11280584 37.38286224 51.48995816 42.76288132 56.86422601 48.14585017 C61.23209443 52.52049695 65.60288611 56.89220287 69.97577667 61.26182938 C70.90973919 62.19510235 70.90973919 62.19510235 71.86256965 63.14722932 C73.12750001 64.4112005 74.3924371 65.67516496 75.65738085 66.93912275 C87.51404584 78.78723623 99.36150347 90.64452225 111.20582774 102.50497074 C121.36850871 112.68105797 131.53903422 122.84924929 141.71533203 133.01171875 C153.53522959 144.815562 165.35024552 156.62425638 177.15751195 168.44073546 C178.41649714 169.70067629 179.67548859 170.96061086 180.93448639 172.22053909 C181.55392415 172.84043968 182.17336191 173.46034027 182.81157051 174.09902572 C187.17667684 178.46672213 191.54525429 182.83092806 195.91518402 187.19379807 C201.2399125 192.51011317 206.55926344 197.83173941 211.87179127 203.16024755 C214.58232058 205.87866118 217.29519315 208.59462084 220.01462364 211.30413246 C222.96192128 214.24084235 225.8974642 217.1890274 228.83197021 220.13851929 C229.69392022 220.99377713 230.55587022 221.84903497 231.44393992 222.73020971 C236.86080421 228.20102911 241.11340198 232.80277577 241.125 240.875 C241.15400391 242.22078125 241.15400391 242.22078125 241.18359375 243.59375 C239.84128746 251.11912072 232.82193774 256.52118745 227.65356445 261.66290283 C226.73008618 262.58950108 225.80660791 263.51609933 224.85514545 264.47077632 C222.29963243 267.03462228 219.73793863 269.5922127 217.17515802 272.14879131 C214.40943256 274.90998729 211.64947379 277.67693721 208.88876343 280.44314575 C203.48328115 285.85751765 198.07241018 291.26647311 192.65958285 296.67350104 C188.26149138 301.06707528 183.86535646 305.46259831 179.47061157 309.85951996 C178.84507678 310.48536121 178.21954199 311.11120247 177.57505161 311.75600861 C176.30431419 313.02738547 175.03358127 314.29876682 173.76285279 315.57015261 C161.84993911 327.48876808 149.93090497 339.40124771 138.00976765 351.31163701 C127.77744793 361.53501698 117.55038948 371.76363551 107.32714844 381.99609375 C95.45619019 393.87774975 83.58200108 405.75616141 71.70262051 417.62939715 C70.43653895 418.8948416 69.17046157 420.16029024 67.90438843 421.4257431 C67.28144231 422.04838067 66.65849619 422.67101824 66.01667291 423.31252362 C61.62341314 427.70405529 57.23248102 432.09790606 52.84243774 436.49265289 C47.49520816 441.84548561 42.1444422 447.19475261 36.7890799 452.53944924 C34.05597416 455.26729131 31.32450582 457.9967218 28.597332 460.73049545 C25.64409123 463.69077509 22.68319676 466.64327686 19.72143555 469.59503174 C18.85646108 470.46446765 17.99148661 471.33390357 17.10030079 472.22968602 C16.30755599 473.01721533 15.51481119 473.80474463 14.69804382 474.61613846 C14.01519664 475.29866094 13.33234945 475.98118342 12.62880993 476.6843884 C8.82848844 479.99394114 5.81100128 480.68640584 0.8125 480.75 C-0.19554687 480.77835937 -1.20359375 480.80671875 -2.2421875 480.8359375 C-9.94225968 479.67994702 -15.35308443 472.62586162 -20.59367371 467.37471008 C-21.51956639 466.45475964 -22.44545908 465.5348092 -23.39940912 464.58698148 C-25.9613282 462.04113877 -28.51700053 459.48910562 -31.07163227 456.93595326 C-33.83087643 454.18042116 -36.59580004 451.43059736 -39.35990906 448.6799469 C-45.39817456 442.66880037 -51.42891825 436.65014537 -57.45804381 430.62983346 C-61.22365523 426.86975305 -64.9907364 423.11114751 -68.75808144 419.35280418 C-79.19230688 408.94295421 -89.62464401 398.53122002 -100.05007458 388.11256123 C-101.05014668 387.11314783 -101.05014668 387.11314783 -102.07042225 386.09354426 C-102.73870552 385.42569754 -103.40698878 384.75785083 -104.09552306 384.06976634 C-105.44966527 382.71651105 -106.80381059 381.36325887 -108.15795898 380.01000977 C-108.82965798 379.33875363 -109.50135698 378.66749749 -110.19341049 377.97590026 C-121.08265046 367.09455985 -131.98533549 356.22679824 -142.89387687 345.36481092 C-154.09812474 334.20799354 -165.29108442 323.03995511 -176.47280866 311.86056298 C-182.74936041 305.58584417 -189.030654 299.31604166 -195.32442284 293.05858803 C-200.68211238 287.73170467 -206.02940168 282.39464948 -211.36344787 277.04408679 C-214.08439022 274.31533374 -216.80993034 271.59163846 -219.54878998 268.88085938 C-222.51973707 265.94009511 -225.46685319 262.97653531 -228.41227722 260.01020813 C-229.71206183 258.73459274 -229.71206183 258.73459274 -231.03810471 257.43320733 C-235.80344739 252.58831543 -239.29633097 248.25116374 -240.3125 241.375 C-240.16966557 229.98928883 -229.52184924 222.43690879 -222.06965637 214.9984436 C-221.15994904 214.08647071 -220.2502417 213.17449782 -219.31296748 212.23488939 C-216.80758984 209.7234376 -214.29914126 207.21507352 -211.79013312 204.7072494 C-209.07739943 201.99472081 -206.36753588 199.27932732 -203.65727234 196.56433105 C-198.35644162 191.25521946 -193.05285961 185.94886472 -187.74816636 180.6436127 C-183.43796768 176.33293804 -179.12856133 172.02147288 -174.81970787 167.70945358 C-162.59868235 155.47963178 -150.37557298 143.2518982 -138.14977304 131.02684923 C-137.49166874 130.36878488 -136.83356443 129.71072053 -136.15551758 129.03271484 C-135.49660885 128.373847 -134.83770012 127.71497915 -134.15882447 127.03614561 C-123.46225262 116.33998089 -112.77068754 105.63882694 -102.08136205 94.93542095 C-91.10117366 83.94088309 -80.11727565 72.95006344 -69.12947768 61.96313035 C-62.96227163 55.79625656 -56.79662108 49.6278457 -50.63495827 43.45543289 C-45.39383568 38.20522456 -40.14928867 32.95846748 -34.90021948 27.71620353 C-32.22175971 25.04101751 -29.54495399 22.36422895 -26.8724556 19.6830864 C-23.97848571 16.77985201 -21.07686751 13.88438618 -18.1743927 10.98965454 C-16.90334622 9.71089272 -16.90334622 9.71089272 -15.60662204 8.40629733 C-14.82966092 7.633935 -14.0526998 6.86157268 -13.2521944 6.06580544 C-12.58312449 5.39651815 -11.91405457 4.72723087 -11.22470981 4.03766215 C-7.63226321 0.91403787 -4.7237531 0.06681405 0 0 Z M-1.83689082 41.65099382 C-2.44064614 42.25550859 -3.04440147 42.86002336 -3.66645241 43.48285675 C-4.36363022 44.17605247 -5.06080804 44.86924819 -5.77911246 45.58344984 C-6.931822 46.74489791 -6.931822 46.74489791 -8.1078186 47.92980957 C-8.92215437 48.74243649 -9.73649014 49.55506341 -10.57550275 50.39231539 C-12.84354516 52.65762278 -15.10701867 54.92738607 -17.3686862 57.19905496 C-19.8054244 59.64439952 -22.24790797 62.08399307 -24.68971252 64.52427673 C-28.92240228 68.75591585 -33.15140372 72.99121255 -37.37794876 77.22898865 C-43.48888861 83.35615634 -49.60531874 89.47781884 -55.72311942 95.59813529 C-65.64777787 105.52717512 -75.56795826 115.4606766 -85.48535156 125.39697266 C-95.12135976 135.05132821 -104.75945836 144.70358891 -114.40039062 154.35302734 C-114.9942773 154.94743946 -115.58816397 155.54185158 -116.20004721 156.15427619 C-119.17930174 159.13614072 -122.15859757 162.11796399 -125.13791394 165.09976673 C-149.8691832 189.85178227 -174.5931973 214.61103393 -199.3125 239.375 C-197.93877182 242.45584345 -196.37134321 244.56527857 -193.98978233 246.94381332 C-192.9544658 247.98510301 -192.9544658 247.98510301 -191.89823377 249.04742885 C-191.13754264 249.80229429 -190.37685151 250.55715974 -189.59310913 251.3348999 C-188.78694047 252.14277742 -187.9807718 252.95065493 -187.15017378 253.78301358 C-184.43867269 256.49781761 -181.72006888 259.20539618 -179.00146484 261.91308594 C-177.05932156 263.8535525 -175.11868819 265.79552656 -173.17799377 267.73744202 C-168.99440748 271.9220773 -164.80717323 276.10303344 -160.61744308 280.28151703 C-154.55979444 286.32291559 -148.50767217 292.36982544 -142.45688696 298.41809717 C-132.63987918 308.23072708 -122.81841283 318.03888181 -112.99414062 327.84423828 C-103.45045764 337.36956486 -93.90887627 346.89698855 -84.37011719 356.42724609 C-83.78220451 357.01463333 -83.19429182 357.60202056 -82.58856361 358.20720741 C-79.63920845 361.1539525 -76.68989461 364.10073893 -73.7406013 367.04754591 C-49.27096846 391.49644338 -24.79409893 415.93808485 -0.3125 440.375 C2.76834345 439.00127182 4.87777857 437.43384321 7.25631332 435.05228233 C7.95050645 434.36207131 8.64469957 433.67186028 9.35992885 432.96073377 C10.11479429 432.20004264 10.86965974 431.43935151 11.6473999 430.65560913 C12.45527742 429.84944047 13.26315493 429.0432718 14.09551358 428.21267378 C16.81031761 425.50117269 19.51789618 422.78256888 22.22558594 420.06396484 C24.1660525 418.12182156 26.10802656 416.18118819 28.04994202 414.24049377 C32.2345773 410.05690748 36.41553344 405.86967323 40.59401703 401.67994308 C46.63541559 395.62229444 52.68232544 389.57017217 58.73059717 383.51938696 C68.54322708 373.70237918 78.35138181 363.88091283 88.15673828 354.05664062 C97.68206486 344.51295764 107.20948855 334.97137627 116.73974609 325.43261719 C117.32713333 324.84470451 117.91452056 324.25679182 118.51970741 323.65106361 C121.4664525 320.70170845 124.41323893 317.75239461 127.36004591 314.8031013 C151.80894338 290.33346846 176.25058485 265.85659893 200.6875 241.375 C199.3143355 238.29677721 197.74795519 236.18506694 195.37036896 233.80618668 C194.68139133 233.11199355 193.9924137 232.41780043 193.28255796 231.70257115 C192.52323107 230.94770571 191.76390418 230.19284026 190.98156738 229.4151001 C190.17680985 228.60722258 189.37205232 227.79934507 188.54290819 226.96698642 C185.83609282 224.2521725 183.12215908 221.5445883 180.40820312 218.83691406 C178.46932416 216.89642665 176.53193754 214.95445166 174.59446716 213.01255798 C169.8725213 208.28171263 165.14517669 203.55629777 160.41588295 198.83279905 C156.57407849 194.99550782 152.73422628 191.15627325 148.89576721 187.31563568 C148.34986947 186.76943148 147.80397173 186.22322727 147.24153164 185.66047142 C146.13265269 184.55095304 145.02377823 183.44143016 143.91490823 182.33190283 C133.5142927 171.92558265 123.10755269 161.52540457 112.69871455 151.12730989 C103.75969408 142.19723006 94.8259375 133.26191233 85.89599609 124.32275391 C75.53248794 113.94855414 65.1657578 103.5775918 54.79382849 93.21181083 C53.68895905 92.10757851 52.5840938 91.003342 51.47923279 89.89910126 C50.93557447 89.35575149 50.39191614 88.81240171 49.83178332 88.2525868 C45.9931485 84.41568187 42.15684565 80.57645473 38.32142639 76.73633575 C33.65151225 72.0608253 28.97807791 67.38886865 24.30002749 62.72149834 C21.9114664 60.33821011 19.52512071 57.95280934 17.14195061 55.56412315 C14.56368575 52.98043904 11.97941473 50.40292179 9.39343262 47.82696533 C8.63410573 47.063177 7.87477883 46.29938866 7.09244204 45.51245522 C6.40346441 44.82869309 5.71448678 44.14493096 5.00463104 43.44044876 C4.40803539 42.84417781 3.81143973 42.24790686 3.19676542 41.63356709 C1.09412593 39.88018904 0.26006298 39.89573522 -1.83689082 41.65099382 Z " fill="#000000" transform="translate(255.3125,15.625)"/>
</svg>
